<svg width="116" height="149" viewBox="0 0 116 149" fill="none" xmlns="http://www.w3.org/2000/svg">
<g filter="url(#filter0_d_20_125)">
<mask id="path-1-outside-1_20_125" maskUnits="userSpaceOnUse" x="6.86328" y="-0.027832" width="102" height="134" fill="black">
<rect fill="white" x="6.86328" y="-0.027832" width="102" height="134"/>
<path fill-rule="evenodd" clip-rule="evenodd" d="M71.5965 46.7752L57.8538 22.9722L44.1107 46.7759C29.3579 52.3337 18.8633 66.5793 18.8633 83.2759C18.8633 104.81 36.3203 122.267 57.8545 122.267C79.3888 122.267 96.8458 104.81 96.8458 83.2759C96.8458 66.5785 86.3502 52.3325 71.5965 46.7752Z"/>
</mask>
<path fill-rule="evenodd" clip-rule="evenodd" d="M71.5965 46.7752L57.8538 22.9722L44.1107 46.7759C29.3579 52.3337 18.8633 66.5793 18.8633 83.2759C18.8633 104.81 36.3203 122.267 57.8545 122.267C79.3888 122.267 96.8458 104.81 96.8458 83.2759C96.8458 66.5785 86.3502 52.3325 71.5965 46.7752Z" fill="black"/>
<path d="M57.8538 22.9722L67.5478 17.3753L57.8538 0.584845L48.1598 17.3753L57.8538 22.9722ZM71.5965 46.7752L61.9025 52.372L63.9042 55.8392L67.6508 57.2504L71.5965 46.7752ZM44.1107 46.7759L48.0569 57.2509L51.8031 55.8396L53.8046 52.3728L44.1107 46.7759ZM48.1598 28.569L61.9025 52.372L81.2905 41.1784L67.5478 17.3753L48.1598 28.569ZM53.8046 52.3728L67.5478 28.569L48.1598 17.3753L34.4167 41.1791L53.8046 52.3728ZM30.0569 83.2759C30.0569 71.3902 37.5216 61.2199 48.0569 57.2509L40.1644 36.301C21.1942 43.4476 7.66962 61.7683 7.66962 83.2759H30.0569ZM57.8545 111.073C42.5023 111.073 30.0569 98.6281 30.0569 83.2759H7.66962C7.66962 110.992 30.1382 133.461 57.8545 133.461V111.073ZM85.6521 83.2759C85.6521 98.6281 73.2067 111.073 57.8545 111.073V133.461C85.5709 133.461 108.039 110.992 108.039 83.2759H85.6521ZM67.6508 57.2504C78.1867 61.219 85.6521 71.3897 85.6521 83.2759H108.039C108.039 61.7674 94.5137 43.446 75.5421 36.3L67.6508 57.2504Z" fill="white" mask="url(#path-1-outside-1_20_125)"/>
</g>
<path d="M52.1826 62.2291C48.6566 62.2104 45.2238 65.6058 46.791 69.8221H40.877C39.8874 69.8221 38.9383 70.2152 38.2386 70.915C37.5389 71.6147 37.1458 72.5638 37.1458 73.5533V77.2846C37.1458 77.7793 37.3423 78.2539 37.6922 78.6037C38.042 78.9536 38.5166 79.1502 39.0114 79.1502H55.8019V73.5533H59.5331V79.1502H76.3236C76.8184 79.1502 77.2929 78.9536 77.6427 78.6037C77.9926 78.2539 78.1892 77.7793 78.1892 77.2846V73.5533C78.1892 72.5638 77.7961 71.6147 77.0963 70.915C76.3966 70.2152 75.4475 69.8221 74.458 69.8221H68.544C70.7267 63.7216 62.518 59.412 58.7309 64.673L57.6675 66.0909L56.6041 64.6357C55.4287 62.9753 53.8057 62.2477 52.1826 62.2291ZM52.0706 66.0909C53.731 66.0909 54.5706 68.1058 53.3952 69.2811C52.2199 70.4564 50.205 69.6169 50.205 67.9565C50.205 67.4617 50.4016 66.9872 50.7514 66.6373C51.1013 66.2874 51.5758 66.0909 52.0706 66.0909ZM63.2643 66.0909C64.9247 66.0909 65.7642 68.1058 64.5889 69.2811C63.4135 70.4564 61.3987 69.6169 61.3987 67.9565C61.3987 67.4617 61.5952 66.9872 61.9451 66.6373C62.295 66.2874 62.7695 66.0909 63.2643 66.0909ZM39.0114 81.0158V95.9407C39.0114 96.9302 39.4045 97.8793 40.1042 98.579C40.804 99.2788 41.753 99.6719 42.7426 99.6719H72.5923C73.5819 99.6719 74.531 99.2788 75.2307 98.579C75.9305 97.8793 76.3236 96.9302 76.3236 95.9407V81.0158H59.5331V95.9407H55.8019V81.0158H39.0114Z" fill="#F1F1EB"/>
<defs>
<filter id="filter0_d_20_125" x="0.207237" y="0.584961" width="115.295" height="147.801" filterUnits="userSpaceOnUse" color-interpolation-filters="sRGB">
<feFlood flood-opacity="0" result="BackgroundImageFix"/>
<feColorMatrix in="SourceAlpha" type="matrix" values="0 0 0 0 0 0 0 0 0 0 0 0 0 0 0 0 0 0 127 0" result="hardAlpha"/>
<feOffset dy="7.46244"/>
<feGaussianBlur stdDeviation="3.73122"/>
<feComposite in2="hardAlpha" operator="out"/>
<feColorMatrix type="matrix" values="0 0 0 0 0 0 0 0 0 0 0 0 0 0 0 0 0 0 0.25 0"/>
<feBlend mode="normal" in2="BackgroundImageFix" result="effect1_dropShadow_20_125"/>
<feBlend mode="normal" in="SourceGraphic" in2="effect1_dropShadow_20_125" result="shape"/>
</filter>
</defs>
</svg>
